<!DOCTYPE svg PUBLIC "-//W3C//DTD SVG 1.1//EN" "http://www.w3.org/Graphics/SVG/1.1/DTD/svg11.dtd">
<!-- Uploaded to: SVG Repo, www.svgrepo.com, Transformed by: SVG Repo Mixer Tools -->
<svg fill="#101010" width="800px" height="800px" viewBox="0 0 32 32" version="1.1" xmlns="http://www.w3.org/2000/svg" stroke="#101010">
<g id="SVGRepo_bgCarrier" stroke-width="0"/>
<g id="SVGRepo_tracerCarrier" stroke-linecap="round" stroke-linejoin="round"/>
<g id="SVGRepo_iconCarrier"> <title>alt-upload-frame</title> <path d="M0 26.016h4q0 0.832 0.576 1.408t1.44 0.576v4q-2.496 0-4.256-1.76t-1.76-4.224zM0 22.016v-4h4v4h-4zM0 14.016v-4h4v4h-4zM0 6.016q0-2.496 1.76-4.256t4.256-1.76v4q-0.832 0-1.44 0.608t-0.576 1.408h-4zM10.016 28h4v4h-4v-4zM10.016 16l5.984-8 6.016 8h-4v8h-4v-8h-4zM10.016 4v-4h4v4h-4zM18.016 28h4v4h-4v-4zM18.016 4v-4h4v4h-4zM26.016 28q0.8 0 1.408-0.576t0.576-1.408h4q0 2.496-1.76 4.224t-4.224 1.76v-4zM26.016 4v-4q2.464 0 4.224 1.76t1.76 4.256h-4q0-0.832-0.576-1.408t-1.408-0.608zM28 22.016v-4h4v4h-4zM28 14.016v-4h4v4h-4z"/> </g>
</svg>