<svg id="visual" viewBox="0 0 1920 1280" width="1920" height="1280" xmlns="http://www.w3.org/2000/svg" xmlns:xlink="http://www.w3.org/1999/xlink" version="1.1"><rect x="0" y="0" width="1920" height="1280" fill="#555555"></rect><defs><linearGradient id="grad1_0" x1="33.3%" y1="0%" x2="100%" y2="100%"><stop offset="20%" stop-color="#101010" stop-opacity="1"></stop><stop offset="80%" stop-color="#101010" stop-opacity="1"></stop></linearGradient></defs><defs><linearGradient id="grad1_1" x1="33.3%" y1="0%" x2="100%" y2="100%"><stop offset="20%" stop-color="#101010" stop-opacity="1"></stop><stop offset="80%" stop-color="#1a1a1a" stop-opacity="1"></stop></linearGradient></defs><defs><linearGradient id="grad1_2" x1="33.3%" y1="0%" x2="100%" y2="100%"><stop offset="20%" stop-color="#232323" stop-opacity="1"></stop><stop offset="80%" stop-color="#1a1a1a" stop-opacity="1"></stop></linearGradient></defs><defs><linearGradient id="grad1_3" x1="33.3%" y1="0%" x2="100%" y2="100%"><stop offset="20%" stop-color="#232323" stop-opacity="1"></stop><stop offset="80%" stop-color="#2c2c2c" stop-opacity="1"></stop></linearGradient></defs><defs><linearGradient id="grad1_4" x1="33.3%" y1="0%" x2="100%" y2="100%"><stop offset="20%" stop-color="#363636" stop-opacity="1"></stop><stop offset="80%" stop-color="#2c2c2c" stop-opacity="1"></stop></linearGradient></defs><defs><linearGradient id="grad1_5" x1="33.3%" y1="0%" x2="100%" y2="100%"><stop offset="20%" stop-color="#363636" stop-opacity="1"></stop><stop offset="80%" stop-color="#404040" stop-opacity="1"></stop></linearGradient></defs><defs><linearGradient id="grad1_6" x1="33.3%" y1="0%" x2="100%" y2="100%"><stop offset="20%" stop-color="#4a4a4a" stop-opacity="1"></stop><stop offset="80%" stop-color="#404040" stop-opacity="1"></stop></linearGradient></defs><defs><linearGradient id="grad1_7" x1="33.3%" y1="0%" x2="100%" y2="100%"><stop offset="20%" stop-color="#4a4a4a" stop-opacity="1"></stop><stop offset="80%" stop-color="#555555" stop-opacity="1"></stop></linearGradient></defs><defs><linearGradient id="grad2_0" x1="0%" y1="0%" x2="66.7%" y2="100%"><stop offset="20%" stop-color="#101010" stop-opacity="1"></stop><stop offset="80%" stop-color="#101010" stop-opacity="1"></stop></linearGradient></defs><defs><linearGradient id="grad2_1" x1="0%" y1="0%" x2="66.7%" y2="100%"><stop offset="20%" stop-color="#1a1a1a" stop-opacity="1"></stop><stop offset="80%" stop-color="#101010" stop-opacity="1"></stop></linearGradient></defs><defs><linearGradient id="grad2_2" x1="0%" y1="0%" x2="66.7%" y2="100%"><stop offset="20%" stop-color="#1a1a1a" stop-opacity="1"></stop><stop offset="80%" stop-color="#232323" stop-opacity="1"></stop></linearGradient></defs><defs><linearGradient id="grad2_3" x1="0%" y1="0%" x2="66.7%" y2="100%"><stop offset="20%" stop-color="#2c2c2c" stop-opacity="1"></stop><stop offset="80%" stop-color="#232323" stop-opacity="1"></stop></linearGradient></defs><defs><linearGradient id="grad2_4" x1="0%" y1="0%" x2="66.7%" y2="100%"><stop offset="20%" stop-color="#2c2c2c" stop-opacity="1"></stop><stop offset="80%" stop-color="#363636" stop-opacity="1"></stop></linearGradient></defs><defs><linearGradient id="grad2_5" x1="0%" y1="0%" x2="66.7%" y2="100%"><stop offset="20%" stop-color="#404040" stop-opacity="1"></stop><stop offset="80%" stop-color="#363636" stop-opacity="1"></stop></linearGradient></defs><defs><linearGradient id="grad2_6" x1="0%" y1="0%" x2="66.7%" y2="100%"><stop offset="20%" stop-color="#404040" stop-opacity="1"></stop><stop offset="80%" stop-color="#4a4a4a" stop-opacity="1"></stop></linearGradient></defs><defs><linearGradient id="grad2_7" x1="0%" y1="0%" x2="66.7%" y2="100%"><stop offset="20%" stop-color="#555555" stop-opacity="1"></stop><stop offset="80%" stop-color="#4a4a4a" stop-opacity="1"></stop></linearGradient></defs><g transform="translate(1920, 0)"><path d="M0 1096.1C-180.2 1049.4 -360.4 1002.6 -529.5 917.1C-698.6 831.6 -856.7 707.4 -949.2 548C-1041.8 388.7 -1069 194.4 -1096.1 0L0 0Z" fill="#505050"></path><path d="M0 959.1C-157.7 918.2 -315.3 877.3 -463.3 802.5C-611.3 727.7 -749.6 618.9 -830.6 479.5C-911.6 340.1 -935.3 170.1 -959.1 0L0 0Z" fill="#454545"></path><path d="M0 822.1C-135.1 787 -270.3 752 -397.1 687.8C-524 623.7 -642.5 530.5 -711.9 411C-781.4 291.5 -801.7 145.8 -822.1 0L0 0Z" fill="#3b3b3b"></path><path d="M0 685.1C-112.6 655.8 -225.2 626.6 -330.9 573.2C-436.6 519.8 -535.4 442.1 -593.3 342.5C-651.1 243 -668.1 121.5 -685.1 0L0 0Z" fill="#313131"></path><path d="M0 548C-90.1 524.7 -180.2 501.3 -264.7 458.6C-349.3 415.8 -428.3 353.7 -474.6 274C-520.9 194.4 -534.5 97.2 -548 0L0 0Z" fill="#282828"></path><path d="M0 411C-67.6 393.5 -135.1 376 -198.6 343.9C-262 311.9 -321.2 265.3 -356 205.5C-390.7 145.8 -400.9 72.9 -411 0L0 0Z" fill="#1e1e1e"></path><path d="M0 274C-45 262.3 -90.1 250.7 -132.4 229.3C-174.7 207.9 -214.2 176.8 -237.3 137C-260.5 97.2 -267.2 48.6 -274 0L0 0Z" fill="#151515"></path><path d="M0 137C-22.5 131.2 -45 125.3 -66.2 114.6C-87.3 104 -107.1 88.4 -118.7 68.5C-130.2 48.6 -133.6 24.3 -137 0L0 0Z" fill="#101010"></path></g><g transform="translate(0, 1280)"><path d="M0 -1096.1C203.3 -1074.1 406.5 -1052.1 548 -949.2C689.6 -846.4 769.4 -662.7 850.4 -491C931.5 -319.3 1013.8 -159.7 1096.1 0L0 0Z" fill="#505050"></path><path d="M0 -959.1C177.8 -939.8 355.7 -920.6 479.5 -830.6C603.4 -740.6 673.2 -579.8 744.1 -429.6C815.1 -279.4 887.1 -139.7 959.1 0L0 0Z" fill="#454545"></path><path d="M0 -822.1C152.4 -805.6 304.9 -789.1 411 -711.9C517.2 -634.8 577 -497 637.8 -368.3C698.6 -239.5 760.3 -119.7 822.1 0L0 0Z" fill="#3b3b3b"></path><path d="M0 -685.1C127 -671.3 254.1 -657.6 342.5 -593.3C431 -529 480.9 -414.2 531.5 -306.9C582.2 -199.6 633.6 -99.8 685.1 0L0 0Z" fill="#313131"></path><path d="M0 -548C101.6 -537 203.3 -526 274 -474.6C344.8 -423.2 384.7 -331.3 425.2 -245.5C465.7 -159.7 506.9 -79.8 548 0L0 0Z" fill="#282828"></path><path d="M0 -411C76.2 -402.8 152.4 -394.5 205.5 -356C258.6 -317.4 288.5 -248.5 318.9 -184.1C349.3 -119.7 380.2 -59.9 411 0L0 0Z" fill="#1e1e1e"></path><path d="M0 -274C50.8 -268.5 101.6 -263 137 -237.3C172.4 -211.6 192.3 -165.7 212.6 -122.8C232.9 -79.8 253.4 -39.9 274 0L0 0Z" fill="#151515"></path><path d="M0 -137C25.4 -134.3 50.8 -131.5 68.5 -118.7C86.2 -105.8 96.2 -82.8 106.3 -61.4C116.4 -39.9 126.7 -20 137 0L0 0Z" fill="#101010"></path></g></svg>