<!DOCTYPE svg PUBLIC "-//W3C//DTD SVG 1.1//EN" "http://www.w3.org/Graphics/SVG/1.1/DTD/svg11.dtd">
<!-- Uploaded to: SVG Repo, www.svgrepo.com, Transformed by: SVG Repo Mixer Tools -->
<svg height="800px" width="800px" version="1.1" id="Layer_1" xmlns="http://www.w3.org/2000/svg" xmlns:xlink="http://www.w3.org/1999/xlink" viewBox="0 0 512 512" xml:space="preserve" fill="#000000">
<g id="SVGRepo_bgCarrier" stroke-width="0"/>
<g id="SVGRepo_tracerCarrier" stroke-linecap="round" stroke-linejoin="round"/>
<g id="SVGRepo_iconCarrier"> <circle style="fill:#B1B8D4;" cx="256" cy="256" r="256"/> <path style="fill:#B1B8D4;" d="M510.897,279.716l-94.174-94.174L263.709,303.457l-168.431,81.12l124.918,124.918 c11.702,1.638,23.652,2.505,35.806,2.505C389.387,512,498.928,409.981,510.897,279.716z"/> <polygon style="fill:#324A5E;" points="416.723,185.542 358.602,127.422 95.277,127.422 95.277,384.578 416.723,384.578 "/> <polygon style="fill:#2B3B4E;" points="416.723,185.542 358.602,127.422 255.426,127.422 255.426,384.578 416.723,384.578 "/> <polygon style="fill:#324A5E;" points="358.602,185.542 416.723,185.542 358.602,127.422 "/> <path style="fill:#FFFFFF;" d="M138.774,195.663v149.118h234.451V195.663H138.774z M195.663,202.559v24.997h6.896v-24.997H366.33 v49.993h-56.889v85.333h-49.993v-56.889H145.67v-78.438H195.663z M145.67,287.892h106.882v49.993H145.67V287.892z M316.337,337.886 v-78.438h49.993v78.438H316.337z"/> <g> <path style="fill:#D0D1D3;" d="M373.226,195.663H255.428v6.896H366.33v49.993h-56.889v85.333h-49.993v-56.889h-4.02v63.785h117.798 V195.663z M366.33,337.886h-49.993v-78.438h49.993V337.886z"/> <path style="fill:#D0D1D3;" d="M304.269,242.972v-8.275h-4.658c-0.391-1.519-0.995-2.95-1.772-4.267l3.298-3.298l-5.851-5.851 l-3.298,3.298c-1.317-0.777-2.748-1.383-4.267-1.772v-4.658h-8.275v4.658c-1.519,0.391-2.95,0.995-4.267,1.772l-3.298-3.298 l-5.851,5.851l3.298,3.298c-0.777,1.317-1.383,2.748-1.772,4.267h-4.661v8.275h4.658c0.391,1.519,0.995,2.95,1.772,4.267 l-3.298,3.298l5.851,5.851l3.298-3.298c1.317,0.777,2.748,1.383,4.267,1.772v4.658h8.275v-4.658 c1.519-0.391,2.95-0.995,4.267-1.772l3.298,3.298l5.851-5.851l-3.298-3.298c0.777-1.317,1.383-2.748,1.772-4.267H304.269z M283.582,247.11c-4.57,0-8.275-3.705-8.275-8.275c0-4.57,3.705-8.275,8.275-8.275s8.275,3.705,8.275,8.275 C291.857,243.405,288.153,247.11,283.582,247.11z"/> </g> </g>
</svg>