<svg id="eyJ4HinXAbP1" xmlns="http://www.w3.org/2000/svg" xmlns:xlink="http://www.w3.org/1999/xlink" viewBox="0 0 297 210" shape-rendering="geometricPrecision" text-rendering="geometricPrecision">
<style><![CDATA[
#eyJ4HinXAbP82_to {animation: eyJ4HinXAbP82_to__to 6000ms linear infinite normal forwards}@keyframes eyJ4HinXAbP82_to__to { 0% {transform: translate(241.691216px,121.178318px)} 50% {transform: translate(241.158625px,129.158402px)} 100% {transform: translate(241.69px,121.181687px)}} #eyJ4HinXAbP84_to {animation: eyJ4HinXAbP84_to__to 6000ms linear infinite normal forwards}@keyframes eyJ4HinXAbP84_to__to { 0% {transform: translate(148.562473px,154.559569px)} 50% {transform: translate(148.562473px,150.559569px)} 100% {transform: translate(148.562473px,154.559569px)}} #eyJ4HinXAbP151_tr {animation: eyJ4HinXAbP151_tr__tr 6000ms linear infinite normal forwards}@keyframes eyJ4HinXAbP151_tr__tr { 0% {transform: translate(137.940369px,46.645296px) rotate(0deg)} 25% {transform: translate(137.940369px,46.645296px) rotate(90deg)} 50% {transform: translate(137.940369px,46.645296px) rotate(180deg)} 75% {transform: translate(137.940369px,46.645296px) rotate(270deg)} 100% {transform: translate(137.940369px,46.645296px) rotate(360deg)}} #eyJ4HinXAbP151_ts {animation: eyJ4HinXAbP151_ts__ts 6000ms linear infinite normal forwards}@keyframes eyJ4HinXAbP151_ts__ts { 0% {transform: scale(1,1)} 50% {transform: scale(1.4,1.4)} 100% {transform: scale(1,1)}} #eyJ4HinXAbP152_tr {animation: eyJ4HinXAbP152_tr__tr 6000ms linear infinite normal forwards}@keyframes eyJ4HinXAbP152_tr__tr { 0% {transform: translate(137.940384px,46.645296px) rotate(90deg)} 25% {transform: translate(137.940384px,46.645296px) rotate(180deg)} 50% {transform: translate(137.940384px,46.645296px) rotate(270deg)} 75% {transform: translate(137.940384px,46.645296px) rotate(360deg)} 100% {transform: translate(137.940384px,46.645296px) rotate(450deg)}} #eyJ4HinXAbP152_ts {animation: eyJ4HinXAbP152_ts__ts 6000ms linear infinite normal forwards}@keyframes eyJ4HinXAbP152_ts__ts { 0% {transform: scale(1,1)} 50% {transform: scale(1.4,1.4)} 100% {transform: scale(1,1)}} #eyJ4HinXAbP153_tr {animation: eyJ4HinXAbP153_tr__tr 6000ms linear infinite normal forwards}@keyframes eyJ4HinXAbP153_tr__tr { 0% {transform: translate(153.96608px,108.794712px) rotate(0deg)} 25% {transform: translate(153.96608px,108.794712px) rotate(90deg)} 50% {transform: translate(153.96608px,108.794712px) rotate(180deg)} 75% {transform: translate(153.96608px,108.794712px) rotate(270deg)} 100% {transform: translate(153.96608px,108.794712px) rotate(360deg)}} #eyJ4HinXAbP153_ts {animation: eyJ4HinXAbP153_ts__ts 6000ms linear infinite normal forwards}@keyframes eyJ4HinXAbP153_ts__ts { 0% {transform: scale(1,1)} 50% {transform: scale(1.3,1.3)} 100% {transform: scale(1,1)}}
]]></style>
<g transform="translate(.123491 0)"><g transform="matrix(.706934 0.227848-.227848 0.706934 27.5233 22.6825)"><circle r="2.20339" transform="translate(108.964 66.9747)" fill="#b3b3b3" stroke-width="0.449792" stroke-linejoin="round"/><circle r="2.20339" transform="translate(101.938 66.9747)" fill="#b3b3b3" stroke-width="0.449792" stroke-linejoin="round"/><circle r="2.20339" transform="translate(94.912 66.9747)" fill="#b3b3b3" stroke-width="0.449792" stroke-linejoin="round"/><circle r="2.20339" transform="translate(87.8861 66.9747)" fill="#b3b3b3" stroke-width="0.449792" stroke-linejoin="round"/><circle r="2.20339" transform="translate(137.067 66.9747)" fill="#b3b3b3" stroke-width="0.449792" stroke-linejoin="round"/><circle r="2.20339" transform="translate(130.041 66.9747)" fill="#b3b3b3" stroke-width="0.449792" stroke-linejoin="round"/><circle r="2.20339" transform="translate(123.016 66.9747)" fill="#b3b3b3" stroke-width="0.449792" stroke-linejoin="round"/><circle r="2.20339" transform="translate(115.99 66.9747)" fill="#b3b3b3" stroke-width="0.449792" stroke-linejoin="round"/><circle r="2.20339" transform="translate(108.964 73.9174)" fill="#b3b3b3" stroke-width="0.449792" stroke-linejoin="round"/><circle r="2.20339" transform="translate(101.938 73.9174)" fill="#b3b3b3" stroke-width="0.449792" stroke-linejoin="round"/><circle r="2.20339" transform="translate(94.912 73.9174)" fill="#b3b3b3" stroke-width="0.449792" stroke-linejoin="round"/><circle r="2.20339" transform="translate(87.8861 73.9174)" fill="#b3b3b3" stroke-width="0.449792" stroke-linejoin="round"/><circle r="2.20339" transform="translate(137.067 73.9174)" fill="#b3b3b3" stroke-width="0.449792" stroke-linejoin="round"/><circle r="2.20339" transform="translate(130.041 73.9174)" fill="#b3b3b3" stroke-width="0.449792" stroke-linejoin="round"/><circle r="2.20339" transform="translate(123.016 73.9174)" fill="#b3b3b3" stroke-width="0.449792" stroke-linejoin="round"/><circle r="2.20339" transform="translate(115.99 73.9174)" fill="#b3b3b3" stroke-width="0.449792" stroke-linejoin="round"/><circle r="2.20339" transform="translate(108.964 80.8602)" fill="#b3b3b3" stroke-width="0.449792" stroke-linejoin="round"/><circle r="2.20339" transform="translate(101.938 80.8602)" fill="#b3b3b3" stroke-width="0.449792" stroke-linejoin="round"/><circle r="2.20339" transform="translate(94.912 80.8602)" fill="#b3b3b3" stroke-width="0.449792" stroke-linejoin="round"/><circle r="2.20339" transform="translate(87.8861 80.8602)" fill="#b3b3b3" stroke-width="0.449792" stroke-linejoin="round"/><circle r="2.20339" transform="translate(137.067 80.8602)" fill="#b3b3b3" stroke-width="0.449792" stroke-linejoin="round"/><circle r="2.20339" transform="translate(130.041 80.8602)" fill="#b3b3b3" stroke-width="0.449792" stroke-linejoin="round"/><circle r="2.20339" transform="translate(123.016 80.8602)" fill="#b3b3b3" stroke-width="0.449792" stroke-linejoin="round"/><circle r="2.20339" transform="translate(115.99 80.8602)" fill="#b3b3b3" stroke-width="0.449792" stroke-linejoin="round"/><circle r="2.20339" transform="translate(108.964 87.8029)" fill="#b3b3b3" stroke-width="0.449792" stroke-linejoin="round"/><circle r="2.20339" transform="translate(101.938 87.8029)" fill="#b3b3b3" stroke-width="0.449792" stroke-linejoin="round"/><circle r="2.20339" transform="translate(94.912 87.8029)" fill="#b3b3b3" stroke-width="0.449792" stroke-linejoin="round"/><circle r="2.20339" transform="translate(87.8861 87.8029)" fill="#b3b3b3" stroke-width="0.449792" stroke-linejoin="round"/><circle r="2.20339" transform="translate(137.067 87.8029)" fill="#b3b3b3" stroke-width="0.449792" stroke-linejoin="round"/><circle r="2.20339" transform="translate(130.041 87.8029)" fill="#b3b3b3" stroke-width="0.449792" stroke-linejoin="round"/><circle r="2.20339" transform="translate(123.016 87.8029)" fill="#b3b3b3" stroke-width="0.449792" stroke-linejoin="round"/><circle r="2.20339" transform="translate(115.99 87.8029)" fill="#b3b3b3" stroke-width="0.449792" stroke-linejoin="round"/><circle r="2.20339" transform="translate(108.964 94.7457)" fill="#b3b3b3" stroke-width="0.449792" stroke-linejoin="round"/><circle r="2.20339" transform="translate(101.938 94.7457)" fill="#b3b3b3" stroke-width="0.449792" stroke-linejoin="round"/><circle r="2.20339" transform="translate(94.912 94.7457)" fill="#b3b3b3" stroke-width="0.449792" stroke-linejoin="round"/><circle r="2.20339" transform="translate(87.8861 94.7457)" fill="#b3b3b3" stroke-width="0.449792" stroke-linejoin="round"/><circle r="2.20339" transform="translate(137.067 94.7457)" fill="#b3b3b3" stroke-width="0.449792" stroke-linejoin="round"/><circle r="2.20339" transform="translate(130.041 94.7457)" fill="#b3b3b3" stroke-width="0.449792" stroke-linejoin="round"/><circle r="2.20339" transform="translate(123.016 94.7457)" fill="#b3b3b3" stroke-width="0.449792" stroke-linejoin="round"/><circle r="2.20339" transform="translate(115.99 94.7457)" fill="#b3b3b3" stroke-width="0.449792" stroke-linejoin="round"/><circle r="2.20339" transform="translate(108.964 101.688)" fill="#b3b3b3" stroke-width="0.449792" stroke-linejoin="round"/><circle r="2.20339" transform="translate(101.938 101.688)" fill="#b3b3b3" stroke-width="0.449792" stroke-linejoin="round"/><circle r="2.20339" transform="translate(94.912 101.688)" fill="#b3b3b3" stroke-width="0.449792" stroke-linejoin="round"/><circle r="2.20339" transform="translate(87.8861 101.688)" fill="#b3b3b3" stroke-width="0.449792" stroke-linejoin="round"/><circle r="2.20339" transform="translate(137.067 101.688)" fill="#b3b3b3" stroke-width="0.449792" stroke-linejoin="round"/><circle r="2.20339" transform="translate(130.041 101.688)" fill="#b3b3b3" stroke-width="0.449792" stroke-linejoin="round"/><circle r="2.20339" transform="translate(123.016 101.688)" fill="#b3b3b3" stroke-width="0.449792" stroke-linejoin="round"/><circle r="2.20339" transform="translate(115.99 101.688)" fill="#b3b3b3" stroke-width="0.449792" stroke-linejoin="round"/><circle r="2.20339" transform="translate(108.964 108.631)" fill="#b3b3b3" stroke-width="0.449792" stroke-linejoin="round"/><circle r="2.20339" transform="translate(101.938 108.631)" fill="#b3b3b3" stroke-width="0.449792" stroke-linejoin="round"/><circle r="2.20339" transform="translate(94.912 108.631)" fill="#b3b3b3" stroke-width="0.449792" stroke-linejoin="round"/><circle r="2.20339" transform="translate(87.8861 108.631)" fill="#b3b3b3" stroke-width="0.449792" stroke-linejoin="round"/><circle r="2.20339" transform="translate(137.067 108.631)" fill="#b3b3b3" stroke-width="0.449792" stroke-linejoin="round"/><circle r="2.20339" transform="translate(130.041 108.631)" fill="#b3b3b3" stroke-width="0.449792" stroke-linejoin="round"/><circle r="2.20339" transform="translate(123.016 108.631)" fill="#b3b3b3" stroke-width="0.449792" stroke-linejoin="round"/><circle r="2.20339" transform="translate(115.99 108.631)" fill="#b3b3b3" stroke-width="0.449792" stroke-linejoin="round"/><circle r="2.20339" transform="translate(108.964 115.574)" fill="#b3b3b3" stroke-width="0.449792" stroke-linejoin="round"/><circle r="2.20339" transform="translate(101.938 115.574)" fill="#b3b3b3" stroke-width="0.449792" stroke-linejoin="round"/><circle r="2.20339" transform="translate(94.912 115.574)" fill="#b3b3b3" stroke-width="0.449792" stroke-linejoin="round"/><circle r="2.20339" transform="translate(87.8861 115.574)" fill="#b3b3b3" stroke-width="0.449792" stroke-linejoin="round"/><circle r="2.20339" transform="translate(137.067 115.574)" fill="#b3b3b3" stroke-width="0.449792" stroke-linejoin="round"/><circle r="2.20339" transform="translate(130.041 115.574)" fill="#b3b3b3" stroke-width="0.449792" stroke-linejoin="round"/><circle r="2.20339" transform="translate(123.016 115.574)" fill="#b3b3b3" stroke-width="0.449792" stroke-linejoin="round"/><circle r="2.20339" transform="translate(115.99 115.574)" fill="#b3b3b3" stroke-width="0.449792" stroke-linejoin="round"/></g><g id="eyJ4HinXAbP82_to" transform="translate(241.691216,121.178318)"><g transform="rotate(-104.684353) translate(-241.677473,-121.146985)"><path d="M255.4229,107.97645c-8.160265-5.420127-19.144308-3.236504-24.53355,4.87726-5.389072,8.113419-3.143186,19.084357,5.01643,24.50477.000267.00018.000533.00036.0008.00054l3.00964-4.53085c-.000267-.000177-.000533-.000353-.0008-.00053-2.694541-1.789852-4.567703-4.576799-5.20741-7.747745s.006441-6.466139,1.7963-9.160675s4.576797-4.567706,7.747742-5.207416s6.466141.006438,9.160678,1.796296c.000267.000177.000533.000353.0008.00053l3.01017-4.53164c-.000267-.00018-.000533-.00036-.0008-.00054Z" transform="matrix(-.135866 0.990727-.990727-.135866 394.584162-101.805936)" fill="#ccc" stroke-width="0.836912" stroke-linejoin="round"/></g></g><g id="eyJ4HinXAbP84_to" transform="translate(148.562473,154.559569)"><path d="M0,105c84.809631-32.828666,51.550953,31.36058,118.4009,13.06831s66.18477-16.15902,81.81635-13.06831s34.58902,30.69541,61.19597,20.38522s35.58678-22.94849,35.58678-22.94849L297,210c-2.871721,99.835681-299.344567,83.0184-297,0Z" transform="translate(-148.5,-152.745533)" fill="#f2f2f2" stroke-width="0.449792" stroke-linejoin="round"/></g><g transform="matrix(.546442-.197572 0.197572 0.546442 121.781 110.469)"><circle r="2.20339" transform="translate(108.964 66.9747)" fill="#fff" stroke-width="0.449792" stroke-linejoin="round"/><circle r="2.20339" transform="translate(101.938 66.9747)" fill="#fff" stroke-width="0.449792" stroke-linejoin="round"/><circle r="2.20339" transform="translate(94.912 66.9747)" fill="#fff" stroke-width="0.449792" stroke-linejoin="round"/><circle r="2.20339" transform="translate(87.8861 66.9747)" fill="#fff" stroke-width="0.449792" stroke-linejoin="round"/><circle r="2.20339" transform="translate(137.067 66.9747)" fill="#fff" stroke-width="0.449792" stroke-linejoin="round"/><circle r="2.20339" transform="translate(130.041 66.9747)" fill="#fff" stroke-width="0.449792" stroke-linejoin="round"/><circle r="2.20339" transform="translate(123.016 66.9747)" fill="#fff" stroke-width="0.449792" stroke-linejoin="round"/><circle r="2.20339" transform="translate(115.99 66.9747)" fill="#fff" stroke-width="0.449792" stroke-linejoin="round"/><circle r="2.20339" transform="translate(108.964 73.9174)" fill="#fff" stroke-width="0.449792" stroke-linejoin="round"/><circle r="2.20339" transform="translate(101.938 73.9174)" fill="#fff" stroke-width="0.449792" stroke-linejoin="round"/><circle r="2.20339" transform="translate(94.912 73.9174)" fill="#fff" stroke-width="0.449792" stroke-linejoin="round"/><circle r="2.20339" transform="translate(87.8861 73.9174)" fill="#fff" stroke-width="0.449792" stroke-linejoin="round"/><circle r="2.20339" transform="translate(137.067 73.9174)" fill="#fff" stroke-width="0.449792" stroke-linejoin="round"/><circle r="2.20339" transform="translate(130.041 73.9174)" fill="#fff" stroke-width="0.449792" stroke-linejoin="round"/><circle r="2.20339" transform="translate(123.016 73.9174)" fill="#fff" stroke-width="0.449792" stroke-linejoin="round"/><circle r="2.20339" transform="translate(115.99 73.9174)" fill="#fff" stroke-width="0.449792" stroke-linejoin="round"/><circle r="2.20339" transform="translate(108.964 80.8602)" fill="#fff" stroke-width="0.449792" stroke-linejoin="round"/><circle r="2.20339" transform="translate(101.938 80.8602)" fill="#fff" stroke-width="0.449792" stroke-linejoin="round"/><circle r="2.20339" transform="translate(94.912 80.8602)" fill="#fff" stroke-width="0.449792" stroke-linejoin="round"/><circle r="2.20339" transform="translate(87.8861 80.8602)" fill="#fff" stroke-width="0.449792" stroke-linejoin="round"/><circle r="2.20339" transform="translate(137.067 80.8602)" fill="#fff" stroke-width="0.449792" stroke-linejoin="round"/><circle r="2.20339" transform="translate(130.041 80.8602)" fill="#fff" stroke-width="0.449792" stroke-linejoin="round"/><circle r="2.20339" transform="translate(123.016 80.8602)" fill="#fff" stroke-width="0.449792" stroke-linejoin="round"/><circle r="2.20339" transform="translate(115.99 80.8602)" fill="#fff" stroke-width="0.449792" stroke-linejoin="round"/><circle r="2.20339" transform="translate(108.964 87.8029)" fill="#fff" stroke-width="0.449792" stroke-linejoin="round"/><circle r="2.20339" transform="translate(101.938 87.8029)" fill="#fff" stroke-width="0.449792" stroke-linejoin="round"/><circle r="2.20339" transform="translate(94.912 87.8029)" fill="#fff" stroke-width="0.449792" stroke-linejoin="round"/><circle r="2.20339" transform="translate(87.8861 87.8029)" fill="#fff" stroke-width="0.449792" stroke-linejoin="round"/><circle r="2.20339" transform="translate(137.067 87.8029)" fill="#fff" stroke-width="0.449792" stroke-linejoin="round"/><circle r="2.20339" transform="translate(130.041 87.8029)" fill="#fff" stroke-width="0.449792" stroke-linejoin="round"/><circle r="2.20339" transform="translate(123.016 87.8029)" fill="#fff" stroke-width="0.449792" stroke-linejoin="round"/><circle r="2.20339" transform="translate(115.99 87.8029)" fill="#fff" stroke-width="0.449792" stroke-linejoin="round"/><circle r="2.20339" transform="translate(108.964 94.7457)" fill="#fff" stroke-width="0.449792" stroke-linejoin="round"/><circle r="2.20339" transform="translate(101.938 94.7457)" fill="#fff" stroke-width="0.449792" stroke-linejoin="round"/><circle r="2.20339" transform="translate(94.912 94.7457)" fill="#fff" stroke-width="0.449792" stroke-linejoin="round"/><circle r="2.20339" transform="translate(87.8861 94.7457)" fill="#fff" stroke-width="0.449792" stroke-linejoin="round"/><circle r="2.20339" transform="translate(137.067 94.7457)" fill="#fff" stroke-width="0.449792" stroke-linejoin="round"/><circle r="2.20339" transform="translate(130.041 94.7457)" fill="#fff" stroke-width="0.449792" stroke-linejoin="round"/><circle r="2.20339" transform="translate(123.016 94.7457)" fill="#fff" stroke-width="0.449792" stroke-linejoin="round"/><circle r="2.20339" transform="translate(115.99 94.7457)" fill="#fff" stroke-width="0.449792" stroke-linejoin="round"/><circle r="2.20339" transform="translate(108.964 101.688)" fill="#fff" stroke-width="0.449792" stroke-linejoin="round"/><circle r="2.20339" transform="translate(101.938 101.688)" fill="#fff" stroke-width="0.449792" stroke-linejoin="round"/><circle r="2.20339" transform="translate(94.912 101.688)" fill="#fff" stroke-width="0.449792" stroke-linejoin="round"/><circle r="2.20339" transform="translate(87.8861 101.688)" fill="#fff" stroke-width="0.449792" stroke-linejoin="round"/><circle r="2.20339" transform="translate(137.067 101.688)" fill="#fff" stroke-width="0.449792" stroke-linejoin="round"/><circle r="2.20339" transform="translate(130.041 101.688)" fill="#fff" stroke-width="0.449792" stroke-linejoin="round"/><circle r="2.20339" transform="translate(123.016 101.688)" fill="#fff" stroke-width="0.449792" stroke-linejoin="round"/><circle r="2.20339" transform="translate(115.99 101.688)" fill="#fff" stroke-width="0.449792" stroke-linejoin="round"/><circle r="2.20339" transform="translate(108.964 108.631)" fill="#fff" stroke-width="0.449792" stroke-linejoin="round"/><circle r="2.20339" transform="translate(101.938 108.631)" fill="#fff" stroke-width="0.449792" stroke-linejoin="round"/><circle r="2.20339" transform="translate(94.912 108.631)" fill="#fff" stroke-width="0.449792" stroke-linejoin="round"/><circle r="2.20339" transform="translate(87.8861 108.631)" fill="#fff" stroke-width="0.449792" stroke-linejoin="round"/><circle r="2.20339" transform="translate(137.067 108.631)" fill="#fff" stroke-width="0.449792" stroke-linejoin="round"/><circle r="2.20339" transform="translate(130.041 108.631)" fill="#fff" stroke-width="0.449792" stroke-linejoin="round"/><circle r="2.20339" transform="translate(123.016 108.631)" fill="#fff" stroke-width="0.449792" stroke-linejoin="round"/><circle r="2.20339" transform="translate(115.99 108.631)" fill="#fff" stroke-width="0.449792" stroke-linejoin="round"/><circle r="2.20339" transform="translate(108.964 115.574)" fill="#fff" stroke-width="0.449792" stroke-linejoin="round"/><circle r="2.20339" transform="translate(101.938 115.574)" fill="#fff" stroke-width="0.449792" stroke-linejoin="round"/><circle r="2.20339" transform="translate(94.912 115.574)" fill="#fff" stroke-width="0.449792" stroke-linejoin="round"/><circle r="2.20339" transform="translate(87.8861 115.574)" fill="#fff" stroke-width="0.449792" stroke-linejoin="round"/><circle r="2.20339" transform="translate(137.067 115.574)" fill="#fff" stroke-width="0.449792" stroke-linejoin="round"/><circle r="2.20339" transform="translate(130.041 115.574)" fill="#fff" stroke-width="0.449792" stroke-linejoin="round"/><circle r="2.20339" transform="translate(123.016 115.574)" fill="#fff" stroke-width="0.449792" stroke-linejoin="round"/><circle r="2.20339" transform="translate(115.99 115.574)" fill="#fff" stroke-width="0.449792" stroke-linejoin="round"/></g><g transform="matrix(.716478-.343102 0.343102 0.716478-54.4216 157.136)"><g id="eyJ4HinXAbP151_tr" transform="translate(137.940369,46.645296) rotate(0)"><g id="eyJ4HinXAbP151_ts" transform="scale(1,1)"><rect width="17.7934" height="3.15957" rx="0" ry="0" transform="translate(-8.896369,-1.579796)" fill="#b3b3b3" stroke-width="0.449792" stroke-linejoin="round"/></g></g><g id="eyJ4HinXAbP152_tr" transform="translate(137.940384,46.645296) rotate(90)"><g id="eyJ4HinXAbP152_ts" transform="scale(1,1)"><rect width="17.7934" height="3.15957" rx="0" ry="0" transform="translate(-8.896696,-1.579616)" fill="#b3b3b3" stroke-width="0.449792" stroke-linejoin="round"/></g></g></g><g id="eyJ4HinXAbP153_tr" transform="translate(153.96608,108.794712) rotate(0)"><g id="eyJ4HinXAbP153_ts" transform="scale(1,1)"><path d="M153.96578,97.682423c-6.172296.00019-11.175777,4.975463-11.17559,11.112587.000151,6.136887,5.003533,11.11179,11.17559,11.11198c6.172296.000145,11.176049-4.974857,11.1762-11.11198.00009-2.947256-1.177368-5.773827-3.27333-7.857858s-4.938723-3.254799-7.90287-3.254729Zm0,3.427737c2.038151-.000005,3.992825.809645,5.434015,2.250835s2.25084,3.395864,2.250835,5.434015-.809645,3.992825-2.250835,5.434015-3.395864,2.25084-5.434015,2.250835-3.992825-.809645-5.434015-2.250835-2.25084-3.395864-2.250835-5.434015.809645-3.992825,2.250835-5.434015s3.395864-2.25084,5.434015-2.250835Z" transform="translate(-153.96608,-108.794712)" fill="#ececec" stroke-width="0.527307" stroke-linejoin="round"/></g></g></g></svg>
