<?xml version="1.0" encoding="UTF-8" standalone="no"?>
<!-- Created with Inkscape (http://www.inkscape.org/) -->

<svg
   width="158.75072mm"
   height="158.75073mm"
   viewBox="0 0 158.75072 158.75073"
   version="1.1"
   id="svg5"
   xml:space="preserve"
   inkscape:export-filename="wall-creation-icon.svg"
   inkscape:export-xdpi="96"
   inkscape:export-ydpi="96"
   xmlns:inkscape="http://www.inkscape.org/namespaces/inkscape"
   xmlns:sodipodi="http://sodipodi.sourceforge.net/DTD/sodipodi-0.dtd"
   xmlns="http://www.w3.org/2000/svg"
   xmlns:svg="http://www.w3.org/2000/svg"><sodipodi:namedview
     id="namedview7"
     pagecolor="#ffffff"
     bordercolor="#000000"
     borderopacity="0.25"
     inkscape:showpageshadow="2"
     inkscape:pageopacity="0.0"
     inkscape:pagecheckerboard="0"
     inkscape:deskcolor="#d1d1d1"
     inkscape:document-units="mm"
     showgrid="false" /><defs
     id="defs2" /><g
     inkscape:label="Layer 1"
     inkscape:groupmode="layer"
     id="layer1"
     transform="translate(-29.229123,-120.84105)"><rect
       style="fill:#101010;fill-opacity:0.0627451;stroke:#e70e0e;stroke-width:0"
       id="rect3292"
       width="141.11194"
       height="141.48135"
       x="38.048508"
       y="128.92165"
       rx="0.099510282"
       ry="0.099506564" /><rect
       style="fill:#ffffff;fill-opacity:1;stroke:#e70e0e;stroke-width:0"
       id="rect3296"
       width="12.559699"
       height="32.507473"
       x="166.60074"
       y="237.89552"
       rx="0.099510282"
       ry="0.099506564" /><rect
       style="fill:#ffffff;fill-opacity:1;stroke:#e70e0e;stroke-width:0"
       id="rect3436"
       width="15.351058"
       height="32.51162"
       x="-274.45847"
       y="144.33813"
       rx="0.099507466"
       ry="0.099500299"
       transform="matrix(-0.01859392,-0.99982712,0.99961417,-0.02777607,0,0)" /><g
       style="fill:#000000"
       id="g3238"
       transform="matrix(8.8194444,0,0,8.8194444,2.7707885,94.382727)"><path
         d="m 18.284819,17.577712 2.568734,2.568735 c 0.195262,0.195262 0.195262,0.511844 0,0.707106 -0.195262,0.195262 -0.511844,0.195262 -0.707106,0 l -2.568735,-2.568734 -1.661687,2.492531 c -0.226068,0.339102 -0.741089,0.279812 -0.88419,-0.101788 l -3,-8 c -0.150728,-0.401943 0.241784,-0.794455 0.643727,-0.643727 l 8,3 c 0.3816,0.143101 0.44089,0.658122 0.101788,0.88419 z M 17.23124,17.078248 19.410472,15.625427 13.3544,13.3544 l 2.271027,6.056072 1.452821,-2.179232 c 0.0192,-0.03007 0.04193,-0.05853 0.0682,-0.08479 0.02627,-0.02627 0.05473,-0.049 0.08479,-0.0682 z M 5.5,3 C 5.7761424,3 6,3.2238576 6,3.5 6,3.7761424 5.7761424,4 5.5,4 4.6715729,4 4,4.6715729 4,5.5 4,5.7761424 3.7761424,6 3.5,6 3.2238576,6 3,5.7761424 3,5.5 3,4.1192881 4.1192881,3 5.5,3 Z m 3,1 C 8.2238576,4 8,3.7761424 8,3.5 8,3.2238576 8.2238576,3 8.5,3 h 2 C 10.776142,3 11,3.2238576 11,3.5 11,3.7761424 10.776142,4 10.5,4 Z m 5,0 C 13.223858,4 13,3.7761424 13,3.5 13,3.2238576 13.223858,3 13.5,3 h 2 C 15.776142,3 16,3.2238576 16,3.5 16,3.7761424 15.776142,4 15.5,4 Z m -5,17 C 8.2238576,21 8,20.776142 8,20.5 8,20.223858 8.2238576,20 8.5,20 h 2 c 0.276142,0 0.5,0.223858 0.5,0.5 0,0.276142 -0.223858,0.5 -0.5,0.5 z M 3,8.5 C 3,8.2238576 3.2238576,8 3.5,8 3.7761424,8 4,8.2238576 4,8.5 v 2 C 4,10.776142 3.7761424,11 3.5,11 3.2238576,11 3,10.776142 3,10.5 Z m 0,5 C 3,13.223858 3.2238576,13 3.5,13 3.7761424,13 4,13.223858 4,13.5 v 2 C 4,15.776142 3.7761424,16 3.5,16 3.2238576,16 3,15.776142 3,15.5 Z m 0,5 C 3,18.223858 3.2238576,18 3.5,18 3.7761424,18 4,18.223858 4,18.5 4,19.328427 4.6715729,20 5.5,20 5.7761424,20 6,20.223858 6,20.5 6,20.776142 5.7761424,21 5.5,21 4.1192881,21 3,19.880712 3,18.5 Z m 18,-8 C 21,10.776142 20.776142,11 20.5,11 20.223858,11 20,10.776142 20,10.5 v -2 C 20,8.2238576 20.223858,8 20.5,8 20.776142,8 21,8.2238576 21,8.5 Z m 0,-5 C 21,5.7761424 20.776142,6 20.5,6 20.223858,6 20,5.7761424 20,5.5 20,4.6715729 19.328427,4 18.5,4 18.223858,4 18,3.7761424 18,3.5 18,3.2238576 18.223858,3 18.5,3 19.880712,3 21,4.1192881 21,5.5 Z"
         id="path3229" /></g></g></svg>
