<!DOCTYPE svg PUBLIC "-//W3C//DTD SVG 1.1//EN" "http://www.w3.org/Graphics/SVG/1.1/DTD/svg11.dtd">
<!-- Uploaded to: SVG Repo, www.svgrepo.com, Transformed by: SVG Repo Mixer Tools -->
<svg fill="#d9d9d9" height="800px" width="800px" version="1.1" id="Capa_1" xmlns="http://www.w3.org/2000/svg" xmlns:xlink="http://www.w3.org/1999/xlink" viewBox="0 0 296.345 296.345" xml:space="preserve" stroke="#d9d9d9">
<g id="SVGRepo_bgCarrier" stroke-width="0"/>
<g id="SVGRepo_tracerCarrier" stroke-linecap="round" stroke-linejoin="round"/>
<g id="SVGRepo_iconCarrier"> <g> <path d="M296.345,123.135c0-33.045-26.885-59.93-59.931-59.93c-6.386,0-12.732,1.027-18.761,3.011 c-3.265-13.481-10.442-25.758-20.796-35.325c-13.123-12.127-30.196-18.806-48.075-18.806c-33.114,0-61.503,23.19-68.957,54.52 c-6.364-2.24-13.095-3.4-19.893-3.4C26.885,63.206,0,90.09,0,123.135c0,24.032,14.55,45.663,36.196,55.025 c-0.741,3.915-1.114,7.9-1.114,11.916c0,35.284,28.705,63.989,63.987,63.989c19.302,0,37.28-8.653,49.305-23.193 c12.024,14.54,30.005,23.193,49.307,23.193c35.281,0,63.985-28.705,63.985-63.989c0-4.068-0.385-8.108-1.146-12.079 C281.944,168.545,296.345,146.978,296.345,123.135z M219.005,188.172h-47v-6.351l28.523-45.649h-29.523v-12h48v6.785 l-28.799,46.215h28.799V188.172z M77.005,136.172v-12h47v6.785l-28.584,46.215h28.584v11h-47v-6.351l28.738-45.649H77.005z M124.005,103.172v-11h47v5.962l-27.952,46.038h28.952v12h-48v-7.174l29.371-45.826H124.005z"/> <path d="M24.077,236.106C10.801,236.106,0,246.907,0,260.182c0,13.276,10.801,24.077,24.077,24.077 c13.275,0,24.076-10.801,24.076-24.077C48.153,246.907,37.353,236.106,24.077,236.106z"/> </g> </g>
</svg>