<?xml version="1.0" encoding="UTF-8" standalone="no"?>
<!-- Created with Inkscape (http://www.inkscape.org/) -->

<svg
   width="211.666mm"
   height="237.96371mm"
   viewBox="0 0 211.666 237.96371"
   version="1.1"
   id="svg1576"
   inkscape:version="1.2.2 (732a01da63, 2022-12-09)"
   sodipodi:docname="trash-delete.svg"
   inkscape:export-filename="trash-delete.svg"
   inkscape:export-xdpi="96"
   inkscape:export-ydpi="96"
   xmlns:inkscape="http://www.inkscape.org/namespaces/inkscape"
   xmlns:sodipodi="http://sodipodi.sourceforge.net/DTD/sodipodi-0.dtd"
   xmlns="http://www.w3.org/2000/svg"
   xmlns:svg="http://www.w3.org/2000/svg">
  <sodipodi:namedview
     id="namedview1578"
     pagecolor="#ffffff"
     bordercolor="#000000"
     borderopacity="0.25"
     inkscape:showpageshadow="2"
     inkscape:pageopacity="0.0"
     inkscape:pagecheckerboard="0"
     inkscape:deskcolor="#d1d1d1"
     inkscape:document-units="mm"
     showgrid="false"
     inkscape:zoom="0.26236509"
     inkscape:cx="1461.7036"
     inkscape:cy="1053.875"
     inkscape:window-width="1920"
     inkscape:window-height="991"
     inkscape:window-x="2391"
     inkscape:window-y="-9"
     inkscape:window-maximized="1"
     inkscape:current-layer="layer1" />
  <defs
     id="defs1573" />
  <g
     inkscape:label="Layer 1"
     inkscape:groupmode="layer"
     id="layer1"
     transform="translate(-1.3643861e-5)">
    <g
       id="g8638"
       transform="matrix(0.41341146,0,0,0.41341146,-0.18707825,80.001823)">
	<g
   id="g8636">
		<g
   id="g8634">
			
			<g
   id="g20773"
   transform="matrix(3.7795352,0,0,3.7795277,-2018.3004,-714.84684)"
   style="fill:#ff0000;stroke-width:0.264583">
  <g
     id="g29488"
     style="fill:#ff0000">
    <path
       d="m 665.28929,174.73361 -29.70661,-7.94681 -0.10616,-1.7838 c -0.55995,-9.77835 -7.38425,-18.07231 -16.97897,-20.639 l -21.0462,-5.63006 c -9.59446,-2.56661 -19.74203,1.18724 -25.25402,9.34128 l -1.00218,1.4873 -29.70661,-7.94681 c -3.1118,-0.83243 -6.31199,0.97736 -7.15575,4.03647 -0.84375,3.05908 0.9869,6.21464 4.0987,7.04708 l 33.7638,9.03214 56.27294,15.05353 33.7638,9.03216 c 3.1118,0.83243 6.31197,-0.97733 7.15574,-4.03643 0.84376,-3.05912 -0.98663,-6.21461 -4.09844,-7.04705 z M 583.26567,152.7915 c 2.85138,-2.86711 7.0882,-4.05453 11.12878,-2.97364 l 21.0462,5.63007 c 4.04032,1.08082 7.09067,4.21762 8.07174,8.10996 z"
       id="path20769"
       style="fill:#ff0000;stroke-width:0.264583" />
    <path
       d="M 652.8814,188.63215 H 551.28162 c -1.55787,0 -3.04801,0.64346 -4.11479,1.77801 -1.06681,1.14007 -1.62005,2.66408 -1.51845,4.2164 l 4.9842,79.68827 c 0.54741,8.92942 7.99251,15.91732 16.9333,15.91732 h 69.03152 c 8.94078,0 16.38587,-6.9879 16.93329,-15.91177 l 4.98394,-79.69382 c 0.10153,-1.55232 -0.45163,-3.07633 -1.51843,-4.2164 -1.06679,-1.13455 -2.55694,-1.77801 -4.1148,-1.77801 z m -22.57763,79.02232 h -56.44425 c -3.1213,0 -5.64435,-2.52864 -5.64435,-5.64437 0,-3.11573 2.5228,-5.64462 5.64435,-5.64462 h 56.44425 c 3.12128,0 5.64432,2.52864 5.64432,5.64436 0,3.11574 -2.52304,5.64463 -5.64432,5.64463 z m 0,-22.57796 h -56.44425 c -3.1213,0 -5.64435,-2.52863 -5.64435,-5.64437 0,-3.11572 2.52305,-5.64434 5.64435,-5.64434 h 56.44425 c 3.12128,0 5.64432,2.52862 5.64432,5.64434 0,3.11574 -2.52304,5.64437 -5.64432,5.64437 z"
       id="path20771"
       style="fill:#ff0000;stroke-width:0.264583" />
  </g>
</g>

		</g>

	</g>

</g>
  </g>
</svg>
