<?xml version="1.0" encoding="iso-8859-1"?>
<!-- Uploaded to: SVG Repo, www.svgrepo.com, Generator: SVG Repo Mixer Tools -->
<svg fill="#000000" height="800px" width="800px" version="1.1" id="Layer_1" xmlns="http://www.w3.org/2000/svg" xmlns:xlink="http://www.w3.org/1999/xlink" 
	 viewBox="0 0 512 512" xml:space="preserve">
<g>
	<g>
		<g>
			<path d="M490.667,64H378.048l-2.112-6.293C364.437,23.189,332.267,0,295.893,0h-79.787c-36.373,0-68.544,23.189-80.064,57.707
				L133.952,64H21.333C9.536,64,0,73.557,0,85.333s9.536,21.333,21.333,21.333h128h213.333h128c11.797,0,21.333-9.557,21.333-21.333
				S502.464,64,490.667,64z M179.712,64c7.275-13.013,21.077-21.333,36.395-21.333h79.787c15.317,0,29.141,8.32,36.395,21.333
				H179.712z"/>
			<path d="M448.004,128h-384c-5.888,0-11.52,2.432-15.552,6.72c-4.032,4.309-6.123,10.069-5.739,15.936L61.551,451.84
				c2.069,33.749,30.208,60.16,64,60.16h260.907c33.792,0,61.931-26.411,64-60.139l18.837-301.205
				c0.384-5.867-1.707-11.627-5.739-15.936C459.524,130.432,453.892,128,448.004,128z M362.671,426.667H149.338
				c-11.797,0-21.333-9.557-21.333-21.333S137.54,384,149.338,384h213.333c11.797,0,21.333,9.557,21.333,21.333
				S374.468,426.667,362.671,426.667z M362.671,341.333H149.338c-11.797,0-21.333-9.557-21.333-21.333s9.536-21.333,21.333-21.333
				h213.333c11.797,0,21.333,9.557,21.333,21.333S374.468,341.333,362.671,341.333z"/>
		</g>
	</g>
</g>
</svg>