<?xml version="1.0" encoding="UTF-8" standalone="no"?>
<!-- Created with Inkscape (http://www.inkscape.org/) -->

<svg
   width="209.27423mm"
   height="194.998mm"
   viewBox="0 0 209.27423 194.998"
   version="1.1"
   id="svg5"
   xml:space="preserve"
   sodipodi:docname="white-wall-creation-icon.svg"
   inkscape:version="1.2.2 (732a01da63, 2022-12-09)"
   xmlns:inkscape="http://www.inkscape.org/namespaces/inkscape"
   xmlns:sodipodi="http://sodipodi.sourceforge.net/DTD/sodipodi-0.dtd"
   xmlns="http://www.w3.org/2000/svg"
   xmlns:svg="http://www.w3.org/2000/svg"><sodipodi:namedview
     id="namedview7"
     pagecolor="#ffffff"
     bordercolor="#000000"
     borderopacity="0.25"
     inkscape:showpageshadow="2"
     inkscape:pageopacity="0.0"
     inkscape:pagecheckerboard="0"
     inkscape:deskcolor="#d1d1d1"
     inkscape:document-units="mm"
     showgrid="false"
     inkscape:zoom="1.0909086"
     inkscape:cx="390.9585"
     inkscape:cy="368.95849"
     inkscape:window-width="1920"
     inkscape:window-height="991"
     inkscape:window-x="-9"
     inkscape:window-y="-9"
     inkscape:window-maximized="1"
     inkscape:current-layer="layer1" /><defs
     id="defs2" /><g
     inkscape:label="Layer 1"
     inkscape:groupmode="layer"
     id="layer1"
     transform="translate(-0.64274259,-104.58384)"><g
       style="fill:#ffffff;stroke-width:2.17801"
       id="g1801"
       transform="matrix(-0.19888513,0,0,0.18115275,195.16641,101.5709)"><g
         id="Hammer"
         style="stroke-width:2.17801;fill:#ffffff">

<g
   id="XMLID_1229_"
   style="stroke-width:2.17801;fill:#ffffff">

<polygon
   id="XMLID_1230_"
   points="153.639,396.144 203.997,341.071 160.03,297.104 104.175,346.679 "
   style="stroke-width:2.17801;fill:#ffffff" />

<path
   d="m 228.319,68.566 27.369,27.37 31.625,-31.625 -14.14,-14.14 C 240.64,17.638 193.314,8.255 151.907,24.295 l 10.374,3.458 c 24.752,8.251 47.587,22.364 66.038,40.813 z"
   id="XMLID_1231_"
   style="stroke-width:2.17801;fill:#ffffff" />

<path
   d="M 17.336,423.753 C 8.898,431.326 4.058,441.79 3.75,453.178 c -0.307,11.39 3.96,22.1 12.017,30.156 8.056,8.057 18.767,12.336 30.156,12.016 11.39,-0.307 21.853,-5.148 29.463,-13.627 l 64.793,-70.861 -50.934,-50.935 z"
   id="XMLID_1232_"
   style="stroke-width:2.17801;fill:#ffffff" />

<polygon
   id="XMLID_1233_"
   points="308.448,71.355 308.444,71.359 246.921,132.882 285.589,171.55 285.59,171.552 331.304,217.266 331.307,217.27 369.974,255.936 447.312,178.597 324.259,55.543 308.451,71.351 "
   style="stroke-width:2.17801;fill:#ffffff" />

<polygon
   id="XMLID_1234_"
   points="414.539,300.501 430.926,316.888 508.265,239.549 491.879,223.162 483.69,231.351 483.686,231.356 422.733,292.309 422.723,292.317 "
   style="stroke-width:2.17801;fill:#ffffff" />

<polygon
   id="XMLID_1235_"
   points="440.09,213.999 405.376,248.712 417.666,269.196 460.573,226.289 "
   style="stroke-width:2.17801;fill:#ffffff" />

<polygon
   id="XMLID_1237_"
   points="217.456,326.351 310.478,224.619 278.138,192.279 174.96,283.854 "
   style="stroke-width:2.17801;fill:#ffffff" />

</g>

</g><g
         id="Layer_1"
         style="stroke-width:2.17801;fill:#ffffff" /></g><g
       style="fill:#ffffff;stroke-width:1.00176"
       id="g2677"
       transform="matrix(0.41195712,0,0,0.41341146,-0.18117165,131.32338)"><g
         id="Brick_Wal"
         style="stroke-width:1.00176;fill:#ffffff">

<g
   id="XMLID_577_"
   style="stroke-width:1.00176;fill:#ffffff">

<polygon
   id="XMLID_578_"
   points="132.264,149 154,149 154,105 2,105 2,149 13.908,149 "
   style="stroke-width:1.00176;fill:#ffffff" />

<rect
   height="45"
   id="XMLID_579_"
   width="99"
   x="142"
   y="169"
   style="stroke-width:1.00176;fill:#ffffff" />

<rect
   height="45"
   id="XMLID_580_"
   width="98"
   x="24"
   y="169"
   style="stroke-width:1.00176;fill:#ffffff" />

<rect
   height="44"
   id="XMLID_581_"
   width="152"
   x="2"
   y="234"
   style="stroke-width:1.00176;fill:#ffffff" />

<polygon
   id="XMLID_582_"
   points="174,105 174,149 250.62,149 338,149 338,105 "
   style="stroke-width:1.00176;fill:#ffffff" />

<polygon
   id="XMLID_583_"
   points="174,234 174,278 250.62,278 338,278 338,234 250.62,234 "
   style="stroke-width:1.00176;fill:#ffffff" />

<rect
   height="45"
   id="XMLID_584_"
   width="98"
   x="379"
   y="169"
   style="stroke-width:1.00176;fill:#ffffff" />

<rect
   height="45"
   id="XMLID_585_"
   width="98"
   x="261"
   y="169"
   style="stroke-width:1.00176;fill:#ffffff" />

<rect
   height="44"
   id="XMLID_586_"
   width="152"
   x="358"
   y="234"
   style="stroke-width:1.00176;fill:#ffffff" />

<rect
   height="45"
   id="XMLID_587_"
   width="98"
   x="261"
   y="298"
   style="stroke-width:1.00176;fill:#ffffff" />

<polygon
   id="XMLID_588_"
   points="368.976,363 358,363 358,407 510,407 510,363 487.332,363 "
   style="stroke-width:1.00176;fill:#ffffff" />

<rect
   height="45"
   id="XMLID_589_"
   width="98"
   x="379"
   y="298"
   style="stroke-width:1.00176;fill:#ffffff" />

<polygon
   id="XMLID_590_"
   points="13.908,363 2,363 2,407 154,407 154,363 132.264,363 "
   style="stroke-width:1.00176;fill:#ffffff" />

<rect
   height="45"
   id="XMLID_591_"
   width="98"
   x="24"
   y="298"
   style="stroke-width:1.00176;fill:#ffffff" />

<rect
   height="45"
   id="XMLID_592_"
   width="99"
   x="142"
   y="298"
   style="stroke-width:1.00176;fill:#ffffff" />

<rect
   height="44"
   id="XMLID_593_"
   width="164"
   x="174"
   y="363"
   style="stroke-width:1.00176;fill:#ffffff" />

</g>

</g><g
         id="Layer_1-5"
         style="stroke-width:1.00176;fill:#ffffff" /></g></g></svg>
